<mxfile host="app.diagrams.net" modified="2021-11-07T13:49:55.712Z" agent="5.0 (Windows NT 10.0; Win64; x64) AppleWebKit/537.36 (KHTML, like Gecko) Chrome/95.0.4638.69 Safari/537.36" etag="9NYZjrX3f9reaUPR-M2d" version="15.7.0" type="github">
  <diagram id="3d0T9JDVEbPb-J_tc9D_" name="Page-1">
    <mxGraphModel dx="2214" dy="2362" grid="1" gridSize="10" guides="1" tooltips="1" connect="1" arrows="1" fold="1" page="1" pageScale="1" pageWidth="827" pageHeight="1169" math="0" shadow="0">
      <root>
        <mxCell id="0" />
        <mxCell id="1" parent="0" />
        <mxCell id="-Vz-WCrURH5xO_16DDzl-93" value="" style="rounded=0;whiteSpace=wrap;html=1;" vertex="1" parent="1">
          <mxGeometry x="19.25" y="-1128" width="148.75" height="685" as="geometry" />
        </mxCell>
        <mxCell id="-Vz-WCrURH5xO_16DDzl-41" style="edgeStyle=orthogonalEdgeStyle;rounded=0;orthogonalLoop=1;jettySize=auto;html=1;entryX=0.5;entryY=0;entryDx=0;entryDy=0;" edge="1" parent="1" source="-Vz-WCrURH5xO_16DDzl-1" target="-Vz-WCrURH5xO_16DDzl-6">
          <mxGeometry relative="1" as="geometry" />
        </mxCell>
        <mxCell id="-Vz-WCrURH5xO_16DDzl-42" style="edgeStyle=orthogonalEdgeStyle;rounded=0;orthogonalLoop=1;jettySize=auto;html=1;entryX=0.5;entryY=0;entryDx=0;entryDy=0;" edge="1" parent="1" source="-Vz-WCrURH5xO_16DDzl-1" target="-Vz-WCrURH5xO_16DDzl-7">
          <mxGeometry relative="1" as="geometry" />
        </mxCell>
        <mxCell id="-Vz-WCrURH5xO_16DDzl-43" style="edgeStyle=orthogonalEdgeStyle;rounded=0;orthogonalLoop=1;jettySize=auto;html=1;" edge="1" parent="1" source="-Vz-WCrURH5xO_16DDzl-1" target="-Vz-WCrURH5xO_16DDzl-2">
          <mxGeometry relative="1" as="geometry" />
        </mxCell>
        <mxCell id="-Vz-WCrURH5xO_16DDzl-55" style="edgeStyle=orthogonalEdgeStyle;rounded=0;orthogonalLoop=1;jettySize=auto;html=1;entryX=0.5;entryY=0;entryDx=0;entryDy=0;" edge="1" parent="1" source="-Vz-WCrURH5xO_16DDzl-1" target="-Vz-WCrURH5xO_16DDzl-3">
          <mxGeometry relative="1" as="geometry" />
        </mxCell>
        <mxCell id="-Vz-WCrURH5xO_16DDzl-66" style="edgeStyle=orthogonalEdgeStyle;rounded=0;orthogonalLoop=1;jettySize=auto;html=1;" edge="1" parent="1" source="-Vz-WCrURH5xO_16DDzl-1" target="-Vz-WCrURH5xO_16DDzl-4">
          <mxGeometry relative="1" as="geometry" />
        </mxCell>
        <mxCell id="-Vz-WCrURH5xO_16DDzl-92" style="edgeStyle=orthogonalEdgeStyle;rounded=0;orthogonalLoop=1;jettySize=auto;html=1;" edge="1" parent="1" source="-Vz-WCrURH5xO_16DDzl-1" target="-Vz-WCrURH5xO_16DDzl-5">
          <mxGeometry relative="1" as="geometry" />
        </mxCell>
        <mxCell id="-Vz-WCrURH5xO_16DDzl-1" value="Home" style="rounded=1;whiteSpace=wrap;html=1;fillColor=#dae8fc;strokeColor=#6c8ebf;" vertex="1" parent="1">
          <mxGeometry x="576" y="-920" width="120" height="60" as="geometry" />
        </mxCell>
        <mxCell id="-Vz-WCrURH5xO_16DDzl-2" value="About Me" style="rounded=1;whiteSpace=wrap;html=1;fillColor=#e1d5e7;strokeColor=#9673a6;" vertex="1" parent="1">
          <mxGeometry x="240" y="-755" width="120" height="60" as="geometry" />
        </mxCell>
        <mxCell id="-Vz-WCrURH5xO_16DDzl-56" style="edgeStyle=orthogonalEdgeStyle;rounded=0;orthogonalLoop=1;jettySize=auto;html=1;entryX=0.5;entryY=0;entryDx=0;entryDy=0;" edge="1" parent="1" source="-Vz-WCrURH5xO_16DDzl-3" target="-Vz-WCrURH5xO_16DDzl-32">
          <mxGeometry relative="1" as="geometry" />
        </mxCell>
        <mxCell id="-Vz-WCrURH5xO_16DDzl-57" style="edgeStyle=orthogonalEdgeStyle;rounded=0;orthogonalLoop=1;jettySize=auto;html=1;entryX=0.5;entryY=0;entryDx=0;entryDy=0;" edge="1" parent="1" source="-Vz-WCrURH5xO_16DDzl-3" target="-Vz-WCrURH5xO_16DDzl-12">
          <mxGeometry relative="1" as="geometry" />
        </mxCell>
        <mxCell id="-Vz-WCrURH5xO_16DDzl-58" style="edgeStyle=orthogonalEdgeStyle;rounded=0;orthogonalLoop=1;jettySize=auto;html=1;entryX=0.5;entryY=0;entryDx=0;entryDy=0;" edge="1" parent="1" source="-Vz-WCrURH5xO_16DDzl-3" target="-Vz-WCrURH5xO_16DDzl-13">
          <mxGeometry relative="1" as="geometry" />
        </mxCell>
        <mxCell id="-Vz-WCrURH5xO_16DDzl-59" style="edgeStyle=orthogonalEdgeStyle;rounded=0;orthogonalLoop=1;jettySize=auto;html=1;" edge="1" parent="1" source="-Vz-WCrURH5xO_16DDzl-3" target="-Vz-WCrURH5xO_16DDzl-14">
          <mxGeometry relative="1" as="geometry" />
        </mxCell>
        <mxCell id="-Vz-WCrURH5xO_16DDzl-60" style="edgeStyle=orthogonalEdgeStyle;rounded=0;orthogonalLoop=1;jettySize=auto;html=1;entryX=0.5;entryY=0;entryDx=0;entryDy=0;" edge="1" parent="1" source="-Vz-WCrURH5xO_16DDzl-3" target="-Vz-WCrURH5xO_16DDzl-15">
          <mxGeometry relative="1" as="geometry" />
        </mxCell>
        <mxCell id="-Vz-WCrURH5xO_16DDzl-3" value="Blog" style="rounded=1;whiteSpace=wrap;html=1;fillColor=#e1d5e7;strokeColor=#9673a6;" vertex="1" parent="1">
          <mxGeometry x="1108" y="-755" width="120" height="60" as="geometry" />
        </mxCell>
        <mxCell id="-Vz-WCrURH5xO_16DDzl-90" style="edgeStyle=orthogonalEdgeStyle;rounded=0;orthogonalLoop=1;jettySize=auto;html=1;entryX=0.5;entryY=0;entryDx=0;entryDy=0;" edge="1" parent="1" source="-Vz-WCrURH5xO_16DDzl-4" target="-Vz-WCrURH5xO_16DDzl-67">
          <mxGeometry relative="1" as="geometry" />
        </mxCell>
        <mxCell id="-Vz-WCrURH5xO_16DDzl-4" value="Contact" style="rounded=1;whiteSpace=wrap;html=1;fillColor=#e1d5e7;strokeColor=#9673a6;" vertex="1" parent="1">
          <mxGeometry x="1469" y="-755" width="120" height="60" as="geometry" />
        </mxCell>
        <mxCell id="-Vz-WCrURH5xO_16DDzl-5" value="Resume" style="rhombus;whiteSpace=wrap;html=1;fillColor=#f8cecc;strokeColor=#b85450;" vertex="1" parent="1">
          <mxGeometry x="670" y="-845" width="80" height="80" as="geometry" />
        </mxCell>
        <mxCell id="-Vz-WCrURH5xO_16DDzl-44" style="edgeStyle=orthogonalEdgeStyle;rounded=0;orthogonalLoop=1;jettySize=auto;html=1;entryX=0.5;entryY=0;entryDx=0;entryDy=0;" edge="1" parent="1" source="-Vz-WCrURH5xO_16DDzl-6" target="-Vz-WCrURH5xO_16DDzl-30">
          <mxGeometry relative="1" as="geometry" />
        </mxCell>
        <mxCell id="-Vz-WCrURH5xO_16DDzl-45" style="edgeStyle=orthogonalEdgeStyle;rounded=0;orthogonalLoop=1;jettySize=auto;html=1;" edge="1" parent="1" source="-Vz-WCrURH5xO_16DDzl-6" target="-Vz-WCrURH5xO_16DDzl-9">
          <mxGeometry relative="1" as="geometry" />
        </mxCell>
        <mxCell id="-Vz-WCrURH5xO_16DDzl-46" style="edgeStyle=orthogonalEdgeStyle;rounded=0;orthogonalLoop=1;jettySize=auto;html=1;" edge="1" parent="1" source="-Vz-WCrURH5xO_16DDzl-6" target="-Vz-WCrURH5xO_16DDzl-33">
          <mxGeometry relative="1" as="geometry" />
        </mxCell>
        <mxCell id="-Vz-WCrURH5xO_16DDzl-47" style="edgeStyle=orthogonalEdgeStyle;rounded=0;orthogonalLoop=1;jettySize=auto;html=1;entryX=0.5;entryY=0;entryDx=0;entryDy=0;" edge="1" parent="1" source="-Vz-WCrURH5xO_16DDzl-6" target="-Vz-WCrURH5xO_16DDzl-35">
          <mxGeometry relative="1" as="geometry" />
        </mxCell>
        <mxCell id="-Vz-WCrURH5xO_16DDzl-48" style="edgeStyle=orthogonalEdgeStyle;rounded=0;orthogonalLoop=1;jettySize=auto;html=1;entryX=0.5;entryY=0;entryDx=0;entryDy=0;" edge="1" parent="1" source="-Vz-WCrURH5xO_16DDzl-6" target="-Vz-WCrURH5xO_16DDzl-37">
          <mxGeometry relative="1" as="geometry" />
        </mxCell>
        <mxCell id="-Vz-WCrURH5xO_16DDzl-6" value="Projects" style="rounded=1;whiteSpace=wrap;html=1;fillColor=#e1d5e7;strokeColor=#9673a6;" vertex="1" parent="1">
          <mxGeometry x="515" y="-660" width="120" height="60" as="geometry" />
        </mxCell>
        <mxCell id="-Vz-WCrURH5xO_16DDzl-7" value="Journey" style="rounded=1;whiteSpace=wrap;html=1;fillColor=#e1d5e7;strokeColor=#9673a6;" vertex="1" parent="1">
          <mxGeometry x="390" y="-755" width="120" height="60" as="geometry" />
        </mxCell>
        <mxCell id="-Vz-WCrURH5xO_16DDzl-9" value="Project #2" style="shape=hexagon;perimeter=hexagonPerimeter2;whiteSpace=wrap;html=1;fixedSize=1;" vertex="1" parent="1">
          <mxGeometry x="355" y="-519" width="75" height="50" as="geometry" />
        </mxCell>
        <mxCell id="-Vz-WCrURH5xO_16DDzl-12" value="Blog #2" style="shape=hexagon;perimeter=hexagonPerimeter2;whiteSpace=wrap;html=1;fixedSize=1;fillColor=#ffe6cc;strokeColor=#d79b00;" vertex="1" parent="1">
          <mxGeometry x="1007.5" y="-656" width="75" height="50" as="geometry" />
        </mxCell>
        <mxCell id="-Vz-WCrURH5xO_16DDzl-13" value="Blog #3" style="shape=hexagon;perimeter=hexagonPerimeter2;whiteSpace=wrap;html=1;fixedSize=1;fillColor=#ffe6cc;strokeColor=#d79b00;" vertex="1" parent="1">
          <mxGeometry x="1130" y="-656" width="75" height="50" as="geometry" />
        </mxCell>
        <mxCell id="-Vz-WCrURH5xO_16DDzl-14" value="Blog #4" style="shape=hexagon;perimeter=hexagonPerimeter2;whiteSpace=wrap;html=1;fixedSize=1;fillColor=#ffe6cc;strokeColor=#d79b00;" vertex="1" parent="1">
          <mxGeometry x="1250" y="-656" width="75" height="50" as="geometry" />
        </mxCell>
        <mxCell id="-Vz-WCrURH5xO_16DDzl-15" value="Blog #5" style="shape=hexagon;perimeter=hexagonPerimeter2;whiteSpace=wrap;html=1;fixedSize=1;fillColor=#ffe6cc;strokeColor=#d79b00;" vertex="1" parent="1">
          <mxGeometry x="1370" y="-656" width="75" height="50" as="geometry" />
        </mxCell>
        <mxCell id="-Vz-WCrURH5xO_16DDzl-16" value="Github" style="ellipse;shape=cloud;whiteSpace=wrap;html=1;fillColor=#d5e8d4;strokeColor=#82b366;" vertex="1" parent="1">
          <mxGeometry x="750" y="-1045" width="120" height="80" as="geometry" />
        </mxCell>
        <mxCell id="-Vz-WCrURH5xO_16DDzl-17" value="Linkedin" style="ellipse;shape=cloud;whiteSpace=wrap;html=1;fillColor=#d5e8d4;strokeColor=#82b366;" vertex="1" parent="1">
          <mxGeometry x="630" y="-1045" width="120" height="80" as="geometry" />
        </mxCell>
        <mxCell id="-Vz-WCrURH5xO_16DDzl-18" value="Codepen" style="ellipse;shape=cloud;whiteSpace=wrap;html=1;fillColor=#d5e8d4;strokeColor=#82b366;" vertex="1" parent="1">
          <mxGeometry x="510" y="-1045" width="120" height="80" as="geometry" />
        </mxCell>
        <mxCell id="-Vz-WCrURH5xO_16DDzl-19" value="Twitter" style="ellipse;shape=cloud;whiteSpace=wrap;html=1;fillColor=#d5e8d4;strokeColor=#82b366;" vertex="1" parent="1">
          <mxGeometry x="400" y="-1045" width="120" height="80" as="geometry" />
        </mxCell>
        <mxCell id="-Vz-WCrURH5xO_16DDzl-30" value="Project #1" style="shape=hexagon;perimeter=hexagonPerimeter2;whiteSpace=wrap;html=1;fixedSize=1;" vertex="1" parent="1">
          <mxGeometry x="240" y="-519" width="75" height="50" as="geometry" />
        </mxCell>
        <mxCell id="-Vz-WCrURH5xO_16DDzl-32" value="Blog #1" style="shape=hexagon;perimeter=hexagonPerimeter2;whiteSpace=wrap;html=1;fixedSize=1;fillColor=#ffe6cc;strokeColor=#d79b00;" vertex="1" parent="1">
          <mxGeometry x="880" y="-656" width="75" height="50" as="geometry" />
        </mxCell>
        <mxCell id="-Vz-WCrURH5xO_16DDzl-33" value="Project #3" style="shape=hexagon;perimeter=hexagonPerimeter2;whiteSpace=wrap;html=1;fixedSize=1;" vertex="1" parent="1">
          <mxGeometry x="475" y="-519" width="75" height="50" as="geometry" />
        </mxCell>
        <mxCell id="-Vz-WCrURH5xO_16DDzl-35" value="Project #4" style="shape=hexagon;perimeter=hexagonPerimeter2;whiteSpace=wrap;html=1;fixedSize=1;" vertex="1" parent="1">
          <mxGeometry x="610" y="-519" width="75" height="50" as="geometry" />
        </mxCell>
        <mxCell id="-Vz-WCrURH5xO_16DDzl-37" value="Project #5" style="shape=hexagon;perimeter=hexagonPerimeter2;whiteSpace=wrap;html=1;fixedSize=1;" vertex="1" parent="1">
          <mxGeometry x="745" y="-519" width="75" height="50" as="geometry" />
        </mxCell>
        <mxCell id="-Vz-WCrURH5xO_16DDzl-40" value="Every page can navigate to social links" style="text;html=1;strokeColor=none;fillColor=none;align=center;verticalAlign=middle;whiteSpace=wrap;rounded=0;fontStyle=1" vertex="1" parent="1">
          <mxGeometry x="880" y="-1020" width="240" height="30" as="geometry" />
        </mxCell>
        <mxCell id="-Vz-WCrURH5xO_16DDzl-51" value="" style="endArrow=classic;startArrow=classic;html=1;rounded=0;exitX=1;exitY=0.5;exitDx=0;exitDy=0;entryX=0;entryY=0.5;entryDx=0;entryDy=0;" edge="1" parent="1" source="-Vz-WCrURH5xO_16DDzl-33" target="-Vz-WCrURH5xO_16DDzl-35">
          <mxGeometry width="50" height="50" relative="1" as="geometry">
            <mxPoint x="675" y="-569" as="sourcePoint" />
            <mxPoint x="725" y="-619" as="targetPoint" />
          </mxGeometry>
        </mxCell>
        <mxCell id="-Vz-WCrURH5xO_16DDzl-52" value="" style="endArrow=classic;startArrow=classic;html=1;rounded=0;exitX=1;exitY=0.5;exitDx=0;exitDy=0;entryX=0;entryY=0.5;entryDx=0;entryDy=0;" edge="1" parent="1" source="-Vz-WCrURH5xO_16DDzl-9" target="-Vz-WCrURH5xO_16DDzl-33">
          <mxGeometry width="50" height="50" relative="1" as="geometry">
            <mxPoint x="425" y="-449" as="sourcePoint" />
            <mxPoint x="485" y="-449" as="targetPoint" />
          </mxGeometry>
        </mxCell>
        <mxCell id="-Vz-WCrURH5xO_16DDzl-53" value="" style="endArrow=classic;startArrow=classic;html=1;rounded=0;exitX=1;exitY=0.5;exitDx=0;exitDy=0;entryX=0;entryY=0.5;entryDx=0;entryDy=0;" edge="1" parent="1" source="-Vz-WCrURH5xO_16DDzl-30" target="-Vz-WCrURH5xO_16DDzl-9">
          <mxGeometry width="50" height="50" relative="1" as="geometry">
            <mxPoint x="345" y="-389" as="sourcePoint" />
            <mxPoint x="390" y="-389" as="targetPoint" />
          </mxGeometry>
        </mxCell>
        <mxCell id="-Vz-WCrURH5xO_16DDzl-54" value="" style="endArrow=classic;startArrow=classic;html=1;rounded=0;entryX=0;entryY=0.5;entryDx=0;entryDy=0;" edge="1" parent="1" target="-Vz-WCrURH5xO_16DDzl-37">
          <mxGeometry width="50" height="50" relative="1" as="geometry">
            <mxPoint x="685" y="-494" as="sourcePoint" />
            <mxPoint x="620" y="-484" as="targetPoint" />
          </mxGeometry>
        </mxCell>
        <mxCell id="-Vz-WCrURH5xO_16DDzl-61" value="" style="endArrow=classic;startArrow=classic;html=1;rounded=0;entryX=0;entryY=0.5;entryDx=0;entryDy=0;exitX=1;exitY=0.5;exitDx=0;exitDy=0;" edge="1" parent="1" source="-Vz-WCrURH5xO_16DDzl-14" target="-Vz-WCrURH5xO_16DDzl-15">
          <mxGeometry width="50" height="50" relative="1" as="geometry">
            <mxPoint x="1325" y="-565" as="sourcePoint" />
            <mxPoint x="1385" y="-565" as="targetPoint" />
          </mxGeometry>
        </mxCell>
        <mxCell id="-Vz-WCrURH5xO_16DDzl-62" value="" style="endArrow=classic;startArrow=classic;html=1;rounded=0;entryX=0;entryY=0.5;entryDx=0;entryDy=0;exitX=1;exitY=0.5;exitDx=0;exitDy=0;" edge="1" parent="1" source="-Vz-WCrURH5xO_16DDzl-13" target="-Vz-WCrURH5xO_16DDzl-14">
          <mxGeometry width="50" height="50" relative="1" as="geometry">
            <mxPoint x="680" y="-480" as="sourcePoint" />
            <mxPoint x="740" y="-480" as="targetPoint" />
          </mxGeometry>
        </mxCell>
        <mxCell id="-Vz-WCrURH5xO_16DDzl-63" value="" style="endArrow=classic;startArrow=classic;html=1;rounded=0;entryX=0;entryY=0.5;entryDx=0;entryDy=0;exitX=1;exitY=0.5;exitDx=0;exitDy=0;" edge="1" parent="1" source="-Vz-WCrURH5xO_16DDzl-12" target="-Vz-WCrURH5xO_16DDzl-13">
          <mxGeometry width="50" height="50" relative="1" as="geometry">
            <mxPoint x="696" y="-470" as="sourcePoint" />
            <mxPoint x="756" y="-470" as="targetPoint" />
          </mxGeometry>
        </mxCell>
        <mxCell id="-Vz-WCrURH5xO_16DDzl-65" value="" style="endArrow=classic;startArrow=classic;html=1;rounded=0;entryX=0;entryY=0.5;entryDx=0;entryDy=0;exitX=1;exitY=0.5;exitDx=0;exitDy=0;" edge="1" parent="1" source="-Vz-WCrURH5xO_16DDzl-32" target="-Vz-WCrURH5xO_16DDzl-12">
          <mxGeometry width="50" height="50" relative="1" as="geometry">
            <mxPoint x="711" y="-460" as="sourcePoint" />
            <mxPoint x="771" y="-460" as="targetPoint" />
          </mxGeometry>
        </mxCell>
        <mxCell id="-Vz-WCrURH5xO_16DDzl-67" value="Message" style="triangle;whiteSpace=wrap;html=1;rotation=0;fillColor=#d5e8d4;strokeColor=#82b366;" vertex="1" parent="1">
          <mxGeometry x="1489" y="-650" width="80" height="110" as="geometry" />
        </mxCell>
        <mxCell id="-Vz-WCrURH5xO_16DDzl-73" value="Project #3" style="shape=hexagon;perimeter=hexagonPerimeter2;whiteSpace=wrap;html=1;fixedSize=1;fillColor=#ffe6cc;strokeColor=#d79b00;" vertex="1" parent="1">
          <mxGeometry x="475" y="-519" width="75" height="50" as="geometry" />
        </mxCell>
        <mxCell id="-Vz-WCrURH5xO_16DDzl-74" value="Project #2" style="shape=hexagon;perimeter=hexagonPerimeter2;whiteSpace=wrap;html=1;fixedSize=1;fillColor=#ffe6cc;strokeColor=#d79b00;" vertex="1" parent="1">
          <mxGeometry x="355" y="-519" width="75" height="50" as="geometry" />
        </mxCell>
        <mxCell id="-Vz-WCrURH5xO_16DDzl-75" value="Sub-pages" style="shape=hexagon;perimeter=hexagonPerimeter2;whiteSpace=wrap;html=1;fixedSize=1;fillColor=#ffe6cc;strokeColor=#d79b00;" vertex="1" parent="1">
          <mxGeometry x="52.5" y="-775" width="75" height="50" as="geometry" />
        </mxCell>
        <mxCell id="-Vz-WCrURH5xO_16DDzl-76" value="Project #4" style="shape=hexagon;perimeter=hexagonPerimeter2;whiteSpace=wrap;html=1;fixedSize=1;fillColor=#ffe6cc;strokeColor=#d79b00;" vertex="1" parent="1">
          <mxGeometry x="610" y="-519" width="75" height="50" as="geometry" />
        </mxCell>
        <mxCell id="-Vz-WCrURH5xO_16DDzl-77" value="Project #5" style="shape=hexagon;perimeter=hexagonPerimeter2;whiteSpace=wrap;html=1;fixedSize=1;fillColor=#ffe6cc;strokeColor=#d79b00;" vertex="1" parent="1">
          <mxGeometry x="745" y="-519" width="75" height="50" as="geometry" />
        </mxCell>
        <mxCell id="-Vz-WCrURH5xO_16DDzl-80" value="&lt;h1&gt;Legend:&lt;/h1&gt;" style="text;html=1;strokeColor=none;fillColor=none;spacing=5;spacingTop=-20;whiteSpace=wrap;overflow=hidden;rounded=0;" vertex="1" parent="1">
          <mxGeometry x="40" y="-1100" width="190" height="40" as="geometry" />
        </mxCell>
        <mxCell id="-Vz-WCrURH5xO_16DDzl-81" value="External Profiles" style="ellipse;shape=cloud;whiteSpace=wrap;html=1;fillColor=#d5e8d4;strokeColor=#82b366;" vertex="1" parent="1">
          <mxGeometry x="30" y="-1045" width="120" height="80" as="geometry" />
        </mxCell>
        <mxCell id="-Vz-WCrURH5xO_16DDzl-83" value="Landing Page" style="rounded=1;whiteSpace=wrap;html=1;fillColor=#dae8fc;strokeColor=#6c8ebf;" vertex="1" parent="1">
          <mxGeometry x="30" y="-945" width="120" height="60" as="geometry" />
        </mxCell>
        <mxCell id="-Vz-WCrURH5xO_16DDzl-85" value="Pages" style="rounded=1;whiteSpace=wrap;html=1;fillColor=#e1d5e7;strokeColor=#9673a6;" vertex="1" parent="1">
          <mxGeometry x="30" y="-855" width="120" height="60" as="geometry" />
        </mxCell>
        <mxCell id="-Vz-WCrURH5xO_16DDzl-87" value="Project #1" style="shape=hexagon;perimeter=hexagonPerimeter2;whiteSpace=wrap;html=1;fixedSize=1;fillColor=#ffe6cc;strokeColor=#d79b00;" vertex="1" parent="1">
          <mxGeometry x="250" y="-509" width="75" height="50" as="geometry" />
        </mxCell>
        <mxCell id="-Vz-WCrURH5xO_16DDzl-88" value="Downloadable Files" style="rhombus;whiteSpace=wrap;html=1;fillColor=#f8cecc;strokeColor=#b85450;" vertex="1" parent="1">
          <mxGeometry x="38.75" y="-705" width="102.5" height="101" as="geometry" />
        </mxCell>
        <mxCell id="-Vz-WCrURH5xO_16DDzl-89" value="Form message" style="triangle;whiteSpace=wrap;html=1;rotation=0;fillColor=#d5e8d4;strokeColor=#82b366;" vertex="1" parent="1">
          <mxGeometry x="42.5" y="-595" width="98.75" height="110" as="geometry" />
        </mxCell>
        <mxCell id="-Vz-WCrURH5xO_16DDzl-91" value="&lt;h1&gt;My Profile Sitemap&lt;/h1&gt;" style="text;html=1;strokeColor=none;fillColor=none;spacing=5;spacingTop=-20;whiteSpace=wrap;overflow=hidden;rounded=0;" vertex="1" parent="1">
          <mxGeometry x="750" y="-1140" width="246" height="50" as="geometry" />
        </mxCell>
      </root>
    </mxGraphModel>
  </diagram>
</mxfile>
